<svg width="64" height="19" viewBox="0 0 64 19" fill="none" xmlns="http://www.w3.org/2000/svg">
  <path
    d="M16.0539 12.571C15.319 12.6508 4.23726 0.239339 1.42601 0C0.574463 0 -0.253748 0 0.0728703 7.86399C0.334165 14.1552 2.49918 17.43 3.54903 18.2809L16.0539 12.571Z"
    fill="white" />
  <path
    d="M13.7534 10.5763C14.9929 11.7871 15.865 12.5915 16.0539 12.571L11.1665 14.8027L10.2351 12.5514L13.7534 10.5763Z"
    fill="#D9D9D9" />
  <path
    d="M8.63565 5.55313C9.83642 6.70309 11.0307 7.8861 12.1001 8.94549C12.6231 9.46352 13.1162 9.95199 13.5656 10.3926L10.138 12.3167L7.87472 6.8456L8.63565 5.55313Z"
    fill="#D9D9D9" />
  <path d="M6.52432 3.58129C7.15273 4.14993 7.79952 4.755 8.44621 5.37204L7.75254 6.55026L6.52432 3.58129Z"
    fill="#D9D9D9" />
  <path
    d="M5.68641 2.83589C5.8178 2.95058 5.95045 3.0675 6.08415 3.18638L7.58997 6.82639L2.04415 16.2461C2.03618 16.231 2.02821 16.2159 2.02024 16.2006L5.68641 2.83589Z"
    fill="#D9D9D9" />
  <path
    d="M5.47182 2.64961C3.73338 1.14898 2.23622 0.0689781 1.42601 0C0.574463 0 -0.253748 0 0.0728703 7.86399C0.223739 11.4965 1.00927 14.1233 1.84835 15.8586L5.47182 2.64961Z"
    fill="#D9D9D9" />
  <path d="M2.4369 16.9289C2.85202 17.59 3.24675 18.0359 3.54903 18.2809L10.9336 14.909L10.0105 12.6774L2.4369 16.9289Z"
    fill="#D9D9D9" />
  <path
    d="M2.30551 16.7135C2.26592 16.6467 2.22622 16.578 2.18646 16.5073L7.71215 7.12173L9.91339 12.4428L2.30551 16.7135Z"
    fill="#D9D9D9" />
  <path
    d="M13.6885 10.5669C14.9049 11.7778 15.7608 12.5823 15.9462 12.5618L11.1497 14.7937L10.2357 12.5421L13.6885 10.5669Z"
    fill="#D9D9D9" />
  <path
    d="M13.6885 10.5669C14.9049 11.7778 15.7608 12.5823 15.9462 12.5618L11.1497 14.7937L10.2357 12.5421L13.6885 10.5669Z"
    fill="url(#paint0_linear_1332_704)" />
  <path
    d="M2.47809 16.9295C2.88868 17.5902 3.2791 18.0359 3.57808 18.2808L10.8821 14.9107L9.96904 12.6803L2.47809 16.9295Z"
    fill="#D9D9D9" />
  <path
    d="M2.47809 16.9295C2.88868 17.5902 3.2791 18.0359 3.57808 18.2808L10.8821 14.9107L9.96904 12.6803L2.47809 16.9295Z"
    fill="url(#paint1_linear_1332_704)" />
  <path d="M13.4681 10.4394L10.0936 12.3634L7.86542 6.89281L8.61456 5.60046L13.4681 10.4394Z" fill="#EDFF78" />
  <path
    d="M2.27436 16.6958C2.23462 16.6288 2.19476 16.5599 2.15485 16.4891L7.70244 7.07983L9.91242 12.4143L2.27436 16.6958Z"
    fill="#D9D9D9" />
  <path
    d="M2.27436 16.6958C2.23462 16.6288 2.19476 16.5599 2.15485 16.4891L7.70244 7.07983L9.91242 12.4143L2.27436 16.6958Z"
    fill="url(#paint2_linear_1332_704)" />
  <path d="M6.46472 3.59265C7.09886 4.15934 7.75153 4.76233 8.40411 5.37724L7.70413 6.55142L6.46472 3.59265Z"
    fill="#D9D9D9" />
  <path d="M6.46472 3.59265C7.09886 4.15934 7.75153 4.76233 8.40411 5.37724L7.70413 6.55142L6.46472 3.59265Z"
    fill="#B4FBA6" />
  <path
    d="M5.66424 2.85315C5.79387 2.96703 5.92474 3.0831 6.05664 3.20113L7.54225 6.81514L2.0709 16.1676C2.06303 16.1526 2.05517 16.1375 2.0473 16.1224L5.66424 2.85315Z"
    fill="#D9D9D9" />
  <path
    d="M5.66424 2.85315C5.79387 2.96703 5.92474 3.0831 6.05664 3.20113L7.54225 6.81514L2.0709 16.1676C2.06303 16.1526 2.05517 16.1375 2.0473 16.1224L5.66424 2.85315Z"
    fill="url(#paint3_linear_1332_704)" />
  <path
    d="M5.3872 2.64825C3.67564 1.14839 2.20163 0.0689428 1.40395 0C0.56558 0 -0.249824 0 0.0717434 7.85997C0.220279 11.4906 0.993661 14.1161 1.81977 15.8505L5.3872 2.64825Z"
    fill="#D9D9D9" />
  <path
    d="M5.3872 2.64825C3.67564 1.14839 2.20163 0.0689428 1.40395 0C0.56558 0 -0.249824 0 0.0717434 7.85997C0.220279 11.4906 0.993661 14.1161 1.81977 15.8505L5.3872 2.64825Z"
    fill="url(#paint4_linear_1332_704)" />
  <path
    d="M22.0658 9.76257C22.0538 10.1774 21.8298 10.4847 21.4417 10.6537C21.2377 10.7421 20.9937 10.7843 20.7097 10.7843C20.0817 10.7843 19.6097 10.5193 19.3536 10.0276C19.2256 9.78178 19.1616 9.48601 19.1616 9.13647C19.1616 8.43354 19.4336 7.9342 19.8977 7.68068C20.1257 7.55393 20.3937 7.49247 20.6977 7.49247C21.3257 7.49247 21.7818 7.75751 21.9458 8.24917H23.2218C23.1418 7.74598 22.8458 7.33114 22.3938 7.02385C21.9418 6.7204 21.3497 6.55139 20.6777 6.55139C19.6257 6.55139 18.7496 6.97392 18.2576 7.74598C18.0096 8.13394 17.8856 8.59871 17.8856 9.14415C17.8856 10.2043 18.3816 10.9956 19.2296 11.4104C19.6497 11.6217 20.1417 11.7254 20.7017 11.7254C21.7058 11.7254 22.5058 11.372 22.9498 10.7382C23.1698 10.4194 23.2818 10.0391 23.2818 9.5974V8.96362H20.7897V9.76257H22.0658Z"
    fill="white" />
  <path
    d="M22.0658 9.76257C22.0538 10.1774 21.8298 10.4847 21.4417 10.6537C21.2377 10.7421 20.9937 10.7843 20.7097 10.7843C20.0817 10.7843 19.6097 10.5193 19.3536 10.0276C19.2256 9.78178 19.1616 9.48601 19.1616 9.13647C19.1616 8.43354 19.4336 7.9342 19.8977 7.68068C20.1257 7.55393 20.3937 7.49247 20.6977 7.49247C21.3257 7.49247 21.7818 7.75751 21.9458 8.24917H23.2218C23.1418 7.74598 22.8458 7.33114 22.3938 7.02385C21.9418 6.7204 21.3497 6.55139 20.6777 6.55139C19.6257 6.55139 18.7496 6.97392 18.2576 7.74598C18.0096 8.13394 17.8856 8.59871 17.8856 9.14415C17.8856 10.2043 18.3816 10.9956 19.2296 11.4104C19.6497 11.6217 20.1417 11.7254 20.7017 11.7254C21.7058 11.7254 22.5058 11.372 22.9498 10.7382C23.1698 10.4194 23.2818 10.0391 23.2818 9.5974V8.96362H20.7897V9.76257H22.0658Z"
    fill="url(#paint5_linear_1332_704)" fill-opacity="0.6" />
  <path
    d="M25.954 11.7292C26.862 11.7292 27.5341 11.3874 27.8901 10.8035C28.0661 10.5116 28.1541 10.1697 28.1541 9.78178C28.1541 8.99819 27.7861 8.39897 27.13 8.07248C26.798 7.91115 26.406 7.83049 25.954 7.83049C25.0539 7.83049 24.3779 8.17235 24.0259 8.7562C23.8459 9.04812 23.7579 9.38998 23.7579 9.78178C23.7579 10.5615 24.1259 11.1607 24.7859 11.4834C25.1139 11.6486 25.502 11.7292 25.954 11.7292ZM25.962 10.9111C25.546 10.9111 25.266 10.7036 25.1259 10.3618C25.0539 10.1889 25.0179 9.99688 25.0179 9.77794C25.0179 9.33237 25.1619 8.98282 25.442 8.79077C25.582 8.69474 25.754 8.64865 25.962 8.64865C26.374 8.64865 26.65 8.85223 26.794 9.19025C26.862 9.35925 26.898 9.55515 26.898 9.77794C26.898 10.212 26.754 10.5692 26.478 10.7651C26.338 10.8611 26.166 10.9111 25.962 10.9111Z"
    fill="white" />
  <path
    d="M25.954 11.7292C26.862 11.7292 27.5341 11.3874 27.8901 10.8035C28.0661 10.5116 28.1541 10.1697 28.1541 9.78178C28.1541 8.99819 27.7861 8.39897 27.13 8.07248C26.798 7.91115 26.406 7.83049 25.954 7.83049C25.0539 7.83049 24.3779 8.17235 24.0259 8.7562C23.8459 9.04812 23.7579 9.38998 23.7579 9.78178C23.7579 10.5615 24.1259 11.1607 24.7859 11.4834C25.1139 11.6486 25.502 11.7292 25.954 11.7292ZM25.962 10.9111C25.546 10.9111 25.266 10.7036 25.1259 10.3618C25.0539 10.1889 25.0179 9.99688 25.0179 9.77794C25.0179 9.33237 25.1619 8.98282 25.442 8.79077C25.582 8.69474 25.754 8.64865 25.962 8.64865C26.374 8.64865 26.65 8.85223 26.794 9.19025C26.862 9.35925 26.898 9.55515 26.898 9.77794C26.898 10.212 26.754 10.5692 26.478 10.7651C26.338 10.8611 26.166 10.9111 25.962 10.9111Z"
    fill="url(#paint6_linear_1332_704)" fill-opacity="0.6" />
  <path
    d="M32.4023 6.92014C31.9703 6.7204 31.4543 6.62053 30.8542 6.62053H28.7221V11.6562H30.8342C32.0463 11.6562 32.9304 11.2376 33.3984 10.4847C33.6304 10.1121 33.7464 9.6627 33.7464 9.13647C33.7464 8.08784 33.2664 7.32346 32.4023 6.92014ZM31.7263 10.5731C31.4703 10.6844 31.1543 10.7421 30.7782 10.7421H29.9782V7.53088H30.7822C31.5303 7.53088 32.0423 7.74982 32.3023 8.22228C32.4303 8.45659 32.4943 8.76388 32.4943 9.13647C32.4943 9.88549 32.2343 10.3503 31.7263 10.5731Z"
    fill="white" />
  <path
    d="M32.4023 6.92014C31.9703 6.7204 31.4543 6.62053 30.8542 6.62053H28.7221V11.6562H30.8342C32.0463 11.6562 32.9304 11.2376 33.3984 10.4847C33.6304 10.1121 33.7464 9.6627 33.7464 9.13647C33.7464 8.08784 33.2664 7.32346 32.4023 6.92014ZM31.7263 10.5731C31.4703 10.6844 31.1543 10.7421 30.7782 10.7421H29.9782V7.53088H30.7822C31.5303 7.53088 32.0423 7.74982 32.3023 8.22228C32.4303 8.45659 32.4943 8.76388 32.4943 9.13647C32.4943 9.88549 32.2343 10.3503 31.7263 10.5731Z"
    fill="url(#paint7_linear_1332_704)" fill-opacity="0.6" />
  <path
    d="M38.4746 9.75105C38.4746 9.10574 38.2506 8.6256 37.8666 8.30679C37.4826 7.98797 36.9586 7.83049 36.3665 7.83049C35.4905 7.83049 34.8265 8.17619 34.4744 8.76004C34.2944 9.05581 34.2064 9.39382 34.2064 9.78178C34.2064 10.5807 34.5704 11.1761 35.2385 11.4911C35.5705 11.6486 35.9665 11.7292 36.4265 11.7292C37.1626 11.7292 37.7306 11.5295 38.0866 11.1838C38.2626 11.0109 38.3786 10.8112 38.4346 10.5769L37.2906 10.5154C37.2106 10.6998 37.0426 10.8342 36.8186 10.8995C36.7066 10.9341 36.5825 10.9495 36.4425 10.9495C36.0425 10.9495 35.7265 10.7882 35.5545 10.4962C35.4785 10.3695 35.4345 10.212 35.4265 10.0353H38.4746V9.75105ZM35.8625 8.72931C36.0025 8.64865 36.1705 8.61023 36.3745 8.61023C36.7786 8.61023 37.0546 8.77156 37.1946 9.05581C37.2426 9.15567 37.2746 9.26707 37.2906 9.38998H35.4345C35.4665 9.09806 35.6185 8.86759 35.8625 8.72931Z"
    fill="white" />
  <path
    d="M38.4746 9.75105C38.4746 9.10574 38.2506 8.6256 37.8666 8.30679C37.4826 7.98797 36.9586 7.83049 36.3665 7.83049C35.4905 7.83049 34.8265 8.17619 34.4744 8.76004C34.2944 9.05581 34.2064 9.39382 34.2064 9.78178C34.2064 10.5807 34.5704 11.1761 35.2385 11.4911C35.5705 11.6486 35.9665 11.7292 36.4265 11.7292C37.1626 11.7292 37.7306 11.5295 38.0866 11.1838C38.2626 11.0109 38.3786 10.8112 38.4346 10.5769L37.2906 10.5154C37.2106 10.6998 37.0426 10.8342 36.8186 10.8995C36.7066 10.9341 36.5825 10.9495 36.4425 10.9495C36.0425 10.9495 35.7265 10.7882 35.5545 10.4962C35.4785 10.3695 35.4345 10.212 35.4265 10.0353H38.4746V9.75105ZM35.8625 8.72931C36.0025 8.64865 36.1705 8.61023 36.3745 8.61023C36.7786 8.61023 37.0546 8.77156 37.1946 9.05581C37.2426 9.15567 37.2746 9.26707 37.2906 9.38998H35.4345C35.4665 9.09806 35.6185 8.86759 35.8625 8.72931Z"
    fill="url(#paint8_linear_1332_704)" fill-opacity="0.6" />
  <path d="M40.2827 9.74337H42.7109V8.88296H40.2827V7.50015H42.9709V6.62053H39.0267V11.6562H40.2827V9.74337Z"
    fill="white" />
  <path d="M40.2827 9.74337H42.7109V8.88296H40.2827V7.50015H42.9709V6.62053H39.0267V11.6562H40.2827V9.74337Z"
    fill="url(#paint9_linear_1332_704)" fill-opacity="0.6" />
  <path
    d="M45.939 9.93926H45.987L47.2031 11.6562H48.6592L46.7951 9.14031L48.6152 6.62053H47.1911L45.987 8.33752H45.939L44.739 6.62053H43.3069L45.139 9.14031L43.2749 11.6562H44.715L45.939 9.93926Z"
    fill="white" />
  <path
    d="M45.939 9.93926H45.987L47.2031 11.6562H48.6592L46.7951 9.14031L48.6152 6.62053H47.1911L45.987 8.33752H45.939L44.739 6.62053H43.3069L45.139 9.14031L43.2749 11.6562H44.715L45.939 9.93926Z"
    fill="url(#paint10_linear_1332_704)" fill-opacity="0.6" />
  <path d="M54.5835 10.7766H52.0274V6.62053H50.7713V11.6562H54.5835V10.7766Z" fill="white" />
  <path d="M54.5835 10.7766H52.0274V6.62053H50.7713V11.6562H54.5835V10.7766Z" fill="url(#paint11_linear_1332_704)"
    fill-opacity="0.6" />
  <path
    d="M56.4076 11.7254C56.8516 11.7254 57.1836 11.6217 57.4237 11.4411C57.5437 11.3528 57.6397 11.2491 57.7117 11.13H57.7437V11.6562H58.9237V9.10574C58.9237 8.66017 58.6997 8.33752 58.3477 8.13394C57.9917 7.93036 57.5237 7.83049 57.0276 7.83049C56.3116 7.83049 55.7636 8.0187 55.4235 8.35288C55.2515 8.52189 55.1395 8.72163 55.0795 8.9521L56.2276 9.02892C56.3116 8.77924 56.5756 8.59487 57.0196 8.59487C57.4397 8.59487 57.6837 8.7754 57.6837 9.08269V9.1019C57.6837 9.25939 57.5437 9.33237 57.2276 9.37462C57.0716 9.39382 56.8636 9.41687 56.6036 9.43608C56.1556 9.47065 55.7476 9.55131 55.4315 9.728C55.1155 9.90469 54.9235 10.1813 54.9235 10.5999C54.9235 11.0954 55.1955 11.4296 55.6476 11.5986C55.8716 11.6831 56.1236 11.7254 56.4076 11.7254ZM56.7636 11.0033C56.3796 11.0033 56.1076 10.8496 56.1076 10.5692C56.1076 10.3695 56.2316 10.2389 56.4516 10.1582C56.5596 10.1198 56.6876 10.0929 56.8356 10.0737C57.0796 10.0468 57.5357 9.9892 57.6917 9.90469V10.308C57.6917 10.5692 57.5277 10.7882 57.2476 10.9111C57.1076 10.9725 56.9436 11.0033 56.7636 11.0033Z"
    fill="white" />
  <path
    d="M56.4076 11.7254C56.8516 11.7254 57.1836 11.6217 57.4237 11.4411C57.5437 11.3528 57.6397 11.2491 57.7117 11.13H57.7437V11.6562H58.9237V9.10574C58.9237 8.66017 58.6997 8.33752 58.3477 8.13394C57.9917 7.93036 57.5237 7.83049 57.0276 7.83049C56.3116 7.83049 55.7636 8.0187 55.4235 8.35288C55.2515 8.52189 55.1395 8.72163 55.0795 8.9521L56.2276 9.02892C56.3116 8.77924 56.5756 8.59487 57.0196 8.59487C57.4397 8.59487 57.6837 8.7754 57.6837 9.08269V9.1019C57.6837 9.25939 57.5437 9.33237 57.2276 9.37462C57.0716 9.39382 56.8636 9.41687 56.6036 9.43608C56.1556 9.47065 55.7476 9.55131 55.4315 9.728C55.1155 9.90469 54.9235 10.1813 54.9235 10.5999C54.9235 11.0954 55.1955 11.4296 55.6476 11.5986C55.8716 11.6831 56.1236 11.7254 56.4076 11.7254ZM56.7636 11.0033C56.3796 11.0033 56.1076 10.8496 56.1076 10.5692C56.1076 10.3695 56.2316 10.2389 56.4516 10.1582C56.5596 10.1198 56.6876 10.0929 56.8356 10.0737C57.0796 10.0468 57.5357 9.9892 57.6917 9.90469V10.308C57.6917 10.5692 57.5277 10.7882 57.2476 10.9111C57.1076 10.9725 56.9436 11.0033 56.7636 11.0033Z"
    fill="url(#paint12_linear_1332_704)" fill-opacity="0.6" />
  <path
    d="M62.1879 11.7177C62.8719 11.7177 63.44 11.4181 63.76 10.8381C63.92 10.55 64 10.1928 64 9.7741C64 8.90984 63.64 8.33367 63.096 8.04559C62.8199 7.90347 62.5199 7.83049 62.1919 7.83049C61.6959 7.83049 61.3679 7.98797 61.1599 8.19923C61.0558 8.30679 60.9758 8.4105 60.9198 8.51421H60.8838V6.62053H59.6478V11.6562H60.8638V11.0493H60.9198C61.0358 11.2606 61.2399 11.4796 61.5759 11.614C61.7439 11.6831 61.9479 11.7177 62.1879 11.7177ZM61.7959 10.8842C61.3999 10.8842 61.1158 10.6883 60.9678 10.3541C60.8918 10.1889 60.8558 9.99304 60.8558 9.77026C60.8558 9.32084 61.0078 8.98282 61.2879 8.79845C61.4279 8.70626 61.5959 8.66017 61.7959 8.66017C62.2079 8.66017 62.4839 8.85991 62.6279 9.19409C62.6959 9.35925 62.7319 9.55131 62.7319 9.77026C62.7319 10.2043 62.5839 10.5538 62.3079 10.7421C62.1679 10.8381 61.9999 10.8842 61.7959 10.8842Z"
    fill="white" />
  <path
    d="M62.1879 11.7177C62.8719 11.7177 63.44 11.4181 63.76 10.8381C63.92 10.55 64 10.1928 64 9.7741C64 8.90984 63.64 8.33367 63.096 8.04559C62.8199 7.90347 62.5199 7.83049 62.1919 7.83049C61.6959 7.83049 61.3679 7.98797 61.1599 8.19923C61.0558 8.30679 60.9758 8.4105 60.9198 8.51421H60.8838V6.62053H59.6478V11.6562H60.8638V11.0493H60.9198C61.0358 11.2606 61.2399 11.4796 61.5759 11.614C61.7439 11.6831 61.9479 11.7177 62.1879 11.7177ZM61.7959 10.8842C61.3999 10.8842 61.1158 10.6883 60.9678 10.3541C60.8918 10.1889 60.8558 9.99304 60.8558 9.77026C60.8558 9.32084 61.0078 8.98282 61.2879 8.79845C61.4279 8.70626 61.5959 8.66017 61.7959 8.66017C62.2079 8.66017 62.4839 8.85991 62.6279 9.19409C62.6959 9.35925 62.7319 9.55131 62.7319 9.77026C62.7319 10.2043 62.5839 10.5538 62.3079 10.7421C62.1679 10.8381 61.9999 10.8842 61.7959 10.8842Z"
    fill="url(#paint13_linear_1332_704)" fill-opacity="0.6" />
  <defs>
    <linearGradient id="paint0_linear_1332_704" x1="16.3671" y1="10.1685" x2="9.99602" y2="13.9983"
      gradientUnits="userSpaceOnUse">
      <stop stop-color="#FC3F44" />
      <stop offset="1" stop-color="#E9BEC0" />
    </linearGradient>
    <linearGradient id="paint1_linear_1332_704" x1="11.5016" y1="12.1524" x2="2.67297" y2="18.0471"
      gradientUnits="userSpaceOnUse">
      <stop stop-color="#FE6569" />
      <stop offset="0.438284" stop-color="white" stop-opacity="0" />
      <stop offset="0.769627" stop-color="#CD66D0" stop-opacity="0.74" />
      <stop offset="1" stop-color="#563FEB" />
    </linearGradient>
    <linearGradient id="paint2_linear_1332_704" x1="8.19268" y1="6.36146" x2="0.567438" y2="15.6798"
      gradientUnits="userSpaceOnUse">
      <stop offset="0.0696697" stop-color="#EDFF78" />
      <stop offset="0.510805" stop-color="white" stop-opacity="0.601405" />
      <stop offset="1" stop-color="#3F68FF" />
    </linearGradient>
    <linearGradient id="paint3_linear_1332_704" x1="6.93325" y1="2.85315" x2="4.35433" y2="16.2161"
      gradientUnits="userSpaceOnUse">
      <stop stop-color="#77FF5B" />
      <stop offset="0.56561" stop-color="#F0F9F5" />
      <stop offset="0.863908" stop-color="#49CDFC" />
    </linearGradient>
    <linearGradient id="paint4_linear_1332_704" x1="4.79014" y1="9.63932e-08" x2="1.12457" y2="15.6418"
      gradientUnits="userSpaceOnUse">
      <stop stop-color="#60FF3E" />
      <stop offset="0.56561" stop-color="#F0F9F5" />
      <stop offset="0.863908" stop-color="#48CCFC" />
    </linearGradient>
    <linearGradient id="paint5_linear_1332_704" x1="40.9766" y1="2.39412" x2="40.9766" y2="14.0139"
      gradientUnits="userSpaceOnUse">
      <stop stop-color="#0A0A39" stop-opacity="0.69" />
      <stop offset="0.53125" stop-color="white" stop-opacity="0.53125" />
      <stop offset="1" stop-color="#0D0F2A" stop-opacity="0.71" />
    </linearGradient>
    <linearGradient id="paint6_linear_1332_704" x1="40.9766" y1="2.39412" x2="40.9766" y2="14.0139"
      gradientUnits="userSpaceOnUse">
      <stop stop-color="#0A0A39" stop-opacity="0.69" />
      <stop offset="0.53125" stop-color="white" stop-opacity="0.53125" />
      <stop offset="1" stop-color="#0D0F2A" stop-opacity="0.71" />
    </linearGradient>
    <linearGradient id="paint7_linear_1332_704" x1="40.9766" y1="2.39412" x2="40.9766" y2="14.0139"
      gradientUnits="userSpaceOnUse">
      <stop stop-color="#0A0A39" stop-opacity="0.69" />
      <stop offset="0.53125" stop-color="white" stop-opacity="0.53125" />
      <stop offset="1" stop-color="#0D0F2A" stop-opacity="0.71" />
    </linearGradient>
    <linearGradient id="paint8_linear_1332_704" x1="40.9766" y1="2.39412" x2="40.9766" y2="14.0139"
      gradientUnits="userSpaceOnUse">
      <stop stop-color="#0A0A39" stop-opacity="0.69" />
      <stop offset="0.53125" stop-color="white" stop-opacity="0.53125" />
      <stop offset="1" stop-color="#0D0F2A" stop-opacity="0.71" />
    </linearGradient>
    <linearGradient id="paint9_linear_1332_704" x1="40.9766" y1="2.39412" x2="40.9766" y2="14.0139"
      gradientUnits="userSpaceOnUse">
      <stop stop-color="#0A0A39" stop-opacity="0.69" />
      <stop offset="0.53125" stop-color="white" stop-opacity="0.53125" />
      <stop offset="1" stop-color="#0D0F2A" stop-opacity="0.71" />
    </linearGradient>
    <linearGradient id="paint10_linear_1332_704" x1="40.9766" y1="2.39412" x2="40.9766" y2="14.0139"
      gradientUnits="userSpaceOnUse">
      <stop stop-color="#0A0A39" stop-opacity="0.69" />
      <stop offset="0.53125" stop-color="white" stop-opacity="0.53125" />
      <stop offset="1" stop-color="#0D0F2A" stop-opacity="0.71" />
    </linearGradient>
    <linearGradient id="paint11_linear_1332_704" x1="40.9766" y1="2.39412" x2="40.9766" y2="14.0139"
      gradientUnits="userSpaceOnUse">
      <stop stop-color="#0A0A39" stop-opacity="0.69" />
      <stop offset="0.53125" stop-color="white" stop-opacity="0.53125" />
      <stop offset="1" stop-color="#0D0F2A" stop-opacity="0.71" />
    </linearGradient>
    <linearGradient id="paint12_linear_1332_704" x1="40.9766" y1="2.39412" x2="40.9766" y2="14.0139"
      gradientUnits="userSpaceOnUse">
      <stop stop-color="#0A0A39" stop-opacity="0.69" />
      <stop offset="0.53125" stop-color="white" stop-opacity="0.53125" />
      <stop offset="1" stop-color="#0D0F2A" stop-opacity="0.71" />
    </linearGradient>
    <linearGradient id="paint13_linear_1332_704" x1="40.9766" y1="2.39412" x2="40.9766" y2="14.0139"
      gradientUnits="userSpaceOnUse">
      <stop stop-color="#0A0A39" stop-opacity="0.69" />
      <stop offset="0.53125" stop-color="white" stop-opacity="0.53125" />
      <stop offset="1" stop-color="#0D0F2A" stop-opacity="0.71" />
    </linearGradient>
  </defs>
</svg>