<svg width="100" height="39" viewBox="0 0 100 39" fill="none" xmlns="http://www.w3.org/2000/svg">
  <path
    d="M27.2207 2.30784C24.0252 0.769281 20.2084 0 15.7703 0H1.24215C0.556131 0 0 0.55613 0 1.24215V37.5474C0 38.2334 0.55613 38.7895 1.24215 38.7895H15.6223C24.5874 38.7895 31.1263 35.5644 34.5881 29.7653C36.3041 26.8952 37.1622 23.4335 37.1622 19.38C37.1622 11.3025 33.6117 5.41455 27.2207 2.30784ZM22.2204 30.4458C20.3268 31.3038 17.9893 31.7476 15.2081 31.7476H10.5327C9.84668 31.7476 9.29055 31.1915 9.29055 30.5055V8.25444C9.29055 7.56842 9.84668 7.01229 10.5327 7.01229H15.2377C20.7706 7.01229 24.5578 8.69879 26.481 12.3381C27.4278 14.1429 27.9012 16.51 27.9012 19.38C27.9012 25.1496 25.978 28.7297 22.2204 30.4458Z"
    fill="white" />
  <path
    d="M51.3751 30.2484H30.1846V22.9233L47.7115 0.193458C47.8056 0.0714603 47.9509 0 48.105 0H61.5799V23.2105H63.4742C63.7486 23.2105 63.9711 23.433 63.9711 23.7074V29.7515C63.9711 30.0259 63.7486 30.2484 63.4742 30.2484H61.5799V38.7799H51.872C51.5975 38.7799 51.3751 38.5575 51.3751 38.2831V30.2484ZM51.3751 23.2105V10.4562L53.5098 6.57823L53.0932 6.23352L40.4414 23.2105H51.3751Z"
    fill="url(#paint0_linear_1083_7513)" />
  <path
    d="M62.002 0.655081C61.6685 0.384086 61.6025 0.767996 61.5794 0.993825L61.2378 0.248535H62.1409C62.2335 0.496965 62.3354 0.926077 62.002 0.655081Z"
    fill="white" />
  <path
    d="M80.6952 25.5638H81.0502L89.7861 38.409C89.948 38.647 90.2172 38.7895 90.5051 38.7895H99.1291C99.8356 38.7895 100.247 37.9916 99.8376 37.4159L87.0269 19.4095L99.5426 1.36506C99.9425 0.788442 99.5298 0 98.8281 0H90.4189C90.1296 0 89.8592 0.143882 89.6977 0.383845L81.0502 13.2257H80.6952L72.0772 0.384956C71.9157 0.144351 71.645 0 71.3552 0H61.2264L74.7776 19.4095L60.9897 38.7895H71.1828C71.4698 38.7895 71.7382 38.6479 71.9003 38.4112L80.6952 25.5638Z"
    fill="white" />
  <path
    d="M80.6952 25.5638H81.0502L89.7861 38.409C89.948 38.647 90.2172 38.7895 90.5051 38.7895H99.1291C99.8356 38.7895 100.247 37.9916 99.8376 37.4159L87.0269 19.4095L99.5426 1.36506C99.9425 0.788442 99.5298 0 98.8281 0H90.4189C90.1296 0 89.8592 0.143882 89.6977 0.383845L81.0502 13.2257H80.6952L72.0772 0.384956C71.9157 0.144351 71.645 0 71.3552 0H61.2264L74.7776 19.4095L60.9897 38.7895H71.1828C71.4698 38.7895 71.7382 38.6479 71.9003 38.4112L80.6952 25.5638Z"
    fill="url(#paint1_linear_1083_7513)" />
  <path
    d="M80.6952 25.5638H81.0502L89.7861 38.409C89.948 38.647 90.2172 38.7895 90.5051 38.7895H99.1291C99.8356 38.7895 100.247 37.9916 99.8376 37.4159L87.0269 19.4095L99.5426 1.36506C99.9425 0.788442 99.5298 0 98.8281 0H90.4189C90.1296 0 89.8592 0.143882 89.6977 0.383845L81.0502 13.2257H80.6952L72.0772 0.384956C71.9157 0.144351 71.645 0 71.3552 0H61.2264L74.7776 19.4095L60.9897 38.7895H71.1828C71.4698 38.7895 71.7382 38.6479 71.9003 38.4112L80.6952 25.5638Z"
    fill="url(#paint2_linear_1083_7513)" />
  <defs>
    <linearGradient id="paint0_linear_1083_7513" x1="74.1419" y1="-4.99239" x2="21.174" y2="25.7012"
      gradientUnits="userSpaceOnUse">
      <stop offset="0.520833" stop-color="white" />
      <stop offset="1" stop-color="white" stop-opacity="0" />
    </linearGradient>
    <linearGradient id="paint1_linear_1083_7513" x1="60.9897" y1="19.3948" x2="100.815" y2="19.3948"
      gradientUnits="userSpaceOnUse">
      <stop stop-color="#4BC0C8" />
      <stop offset="0.5" stop-color="#C779D0" />
      <stop offset="1" stop-color="#FEAC5E" />
    </linearGradient>
    <linearGradient id="paint2_linear_1083_7513" x1="60.9897" y1="19.3948" x2="100.815" y2="19.3948"
      gradientUnits="userSpaceOnUse">
      <stop stop-color="#2CD1DC" />
      <stop offset="0.5" stop-color="#D05ADE" />
      <stop offset="1" stop-color="#F8C135" />
    </linearGradient>
  </defs>
</svg>