<svg width="53" height="33" viewBox="0 0 53 33" fill="none" xmlns="http://www.w3.org/2000/svg">
  <path
    d="M2.016 32L0.344 26.752H1.048L1.896 29.584C1.992 29.8933 2.07467 30.184 2.144 30.456C2.21867 30.7227 2.304 31.0107 2.4 31.32H2.432C2.53333 31.0107 2.61867 30.7227 2.688 30.456C2.76267 30.184 2.84533 29.8933 2.936 29.584L3.776 26.752H4.456L2.792 32H2.016ZM7.43688 32.096C7.04754 32.096 6.69288 32.016 6.37288 31.856C6.05821 31.696 5.80754 31.464 5.62088 31.16C5.43421 30.8507 5.34088 30.48 5.34088 30.048C5.34088 29.6267 5.43421 29.264 5.62088 28.96C5.80754 28.656 6.05021 28.424 6.34888 28.264C6.65288 28.0987 6.97821 28.016 7.32488 28.016C7.69821 28.016 8.01554 28.0933 8.27688 28.248C8.54354 28.3973 8.74621 28.608 8.88488 28.88C9.02888 29.152 9.10088 29.472 9.10088 29.84C9.10088 29.9147 9.09821 29.9867 9.09288 30.056C9.08754 30.1253 9.07954 30.1867 9.06888 30.24H5.78088V29.728H8.67688L8.50888 29.912C8.50888 29.4533 8.40221 29.1093 8.18888 28.88C7.98088 28.6507 7.69821 28.536 7.34088 28.536C7.10088 28.536 6.87688 28.5947 6.66888 28.712C6.46621 28.8293 6.30354 29 6.18088 29.224C6.05821 29.448 5.99688 29.7227 5.99688 30.048C5.99688 30.384 6.06354 30.664 6.19688 30.888C6.33021 31.112 6.51154 31.2827 6.74088 31.4C6.97021 31.512 7.22888 31.568 7.51688 31.568C7.75154 31.568 7.96221 31.536 8.14888 31.472C8.34088 31.4027 8.52488 31.312 8.70088 31.2L8.94088 31.632C8.74888 31.76 8.52754 31.8693 8.27688 31.96C8.03154 32.0507 7.75154 32.096 7.43688 32.096ZM10.7618 32V28.112H11.3058L11.3618 29.032H11.3858C11.5884 28.7173 11.8391 28.4693 12.1378 28.288C12.4364 28.1067 12.7644 28.016 13.1218 28.016C13.2658 28.016 13.3991 28.0293 13.5218 28.056C13.6498 28.0773 13.7724 28.1173 13.8898 28.176L13.7378 28.744C13.6044 28.696 13.4898 28.6613 13.3938 28.64C13.2978 28.6187 13.1724 28.608 13.0178 28.608C12.7244 28.608 12.4418 28.6933 12.1698 28.864C11.9031 29.0293 11.6524 29.3147 11.4178 29.72V32H10.7618ZM16.8706 32.096C16.492 32.096 16.1373 32.0347 15.8066 31.912C15.476 31.7893 15.1933 31.648 14.9586 31.488L15.2626 31.056C15.4866 31.216 15.7346 31.344 16.0066 31.44C16.2786 31.536 16.5933 31.584 16.9506 31.584C17.2813 31.584 17.5266 31.5227 17.6866 31.4C17.852 31.2773 17.9346 31.136 17.9346 30.976C17.9346 30.9013 17.9186 30.832 17.8866 30.768C17.86 30.704 17.804 30.6427 17.7186 30.584C17.6386 30.5253 17.5186 30.4693 17.3586 30.416C17.1986 30.3627 16.9853 30.3093 16.7186 30.256C16.212 30.1493 15.8306 30.0053 15.5746 29.824C15.324 29.6427 15.1986 29.408 15.1986 29.12C15.1986 28.8053 15.3346 28.544 15.6066 28.336C15.8786 28.1227 16.2813 28.016 16.8146 28.016C17.1133 28.016 17.4013 28.0667 17.6786 28.168C17.956 28.264 18.1906 28.3787 18.3826 28.512L18.0626 28.936C17.8866 28.808 17.6866 28.7093 17.4626 28.64C17.2386 28.5653 17.004 28.528 16.7586 28.528C16.5346 28.528 16.356 28.5547 16.2226 28.608C16.0946 28.656 16.0013 28.7227 15.9426 28.808C15.8893 28.8933 15.8626 28.9867 15.8626 29.088C15.8626 29.2533 15.9506 29.384 16.1266 29.48C16.308 29.5707 16.596 29.656 16.9906 29.736C17.4226 29.8267 17.7533 29.928 17.9826 30.04C18.2173 30.152 18.3773 30.28 18.4626 30.424C18.5533 30.568 18.5986 30.7387 18.5986 30.936C18.5986 31.1493 18.532 31.344 18.3986 31.52C18.2653 31.6907 18.0706 31.8293 17.8146 31.936C17.5586 32.0427 17.244 32.096 16.8706 32.096ZM21.7155 32V28.648H19.9075V28.112H22.3715V32H21.7155ZM21.9715 27.296C21.8222 27.296 21.6968 27.2507 21.5955 27.16C21.4942 27.064 21.4435 26.9387 21.4435 26.784C21.4435 26.6293 21.4942 26.5067 21.5955 26.416C21.6968 26.32 21.8222 26.272 21.9715 26.272C22.1208 26.272 22.2462 26.32 22.3475 26.416C22.4488 26.5067 22.4995 26.6293 22.4995 26.784C22.4995 26.9387 22.4488 27.064 22.3475 27.16C22.2462 27.2507 22.1208 27.296 21.9715 27.296ZM26.3844 32.096C26.043 32.096 25.7257 32.016 25.4324 31.856C25.1444 31.696 24.9097 31.464 24.7284 31.16C24.5524 30.856 24.4644 30.4907 24.4644 30.064C24.4644 29.6267 24.5524 29.256 24.7284 28.952C24.9097 28.648 25.1444 28.416 25.4324 28.256C25.7257 28.096 26.043 28.016 26.3844 28.016C26.7257 28.016 27.0404 28.096 27.3284 28.256C27.6217 28.416 27.8564 28.648 28.0324 28.952C28.2137 29.256 28.3044 29.6267 28.3044 30.064C28.3044 30.4907 28.2137 30.856 28.0324 31.16C27.8564 31.464 27.6217 31.696 27.3284 31.856C27.0404 32.016 26.7257 32.096 26.3844 32.096ZM26.3844 31.552C26.635 31.552 26.8537 31.4907 27.0404 31.368C27.227 31.24 27.371 31.064 27.4724 30.84C27.5737 30.616 27.6244 30.3573 27.6244 30.064C27.6244 29.7653 27.5737 29.504 27.4724 29.28C27.371 29.0507 27.227 28.8747 27.0404 28.752C26.8537 28.624 26.635 28.56 26.3844 28.56C26.1337 28.56 25.915 28.624 25.7284 28.752C25.547 28.8747 25.403 29.0507 25.2964 29.28C25.195 29.504 25.1444 29.7653 25.1444 30.064C25.1444 30.3573 25.195 30.616 25.2964 30.84C25.403 31.064 25.547 31.24 25.7284 31.368C25.915 31.4907 26.1337 31.552 26.3844 31.552ZM29.5253 32V28.112H30.0693L30.1253 28.776H30.1573C30.3599 28.5573 30.5786 28.376 30.8133 28.232C31.0479 28.088 31.3173 28.016 31.6213 28.016C32.0799 28.016 32.4186 28.1493 32.6373 28.416C32.8559 28.6827 32.9653 29.072 32.9653 29.584V32H32.3093V29.672C32.3093 29.304 32.2399 29.032 32.1013 28.856C31.9626 28.6747 31.7333 28.584 31.4133 28.584C31.1839 28.584 30.9786 28.6427 30.7973 28.76C30.6159 28.8773 30.4106 29.0533 30.1813 29.288V32H29.5253ZM39.151 32V31.456H40.623V27.696H39.479V27.272C39.6817 27.2453 39.8603 27.2133 40.015 27.176C40.1697 27.1387 40.311 27.0987 40.439 27.056C40.567 27.008 40.6843 26.9547 40.791 26.896H41.279V31.456H42.615V32H39.151ZM45.5719 32.096C45.3959 32.096 45.2439 32.0347 45.1159 31.912C44.9879 31.784 44.9239 31.6213 44.9239 31.424C44.9239 31.2213 44.9879 31.0587 45.1159 30.936C45.2439 30.808 45.3959 30.744 45.5719 30.744C45.7532 30.744 45.9052 30.808 46.0279 30.936C46.1559 31.0587 46.2199 31.2213 46.2199 31.424C46.2199 31.6213 46.1559 31.784 46.0279 31.912C45.9052 32.0347 45.7532 32.096 45.5719 32.096ZM50.9128 32V28.48C50.9181 28.3413 50.9234 28.192 50.9288 28.032C50.9394 27.8667 50.9474 27.7147 50.9528 27.576H50.9128C50.8328 27.6987 50.7474 27.824 50.6568 27.952C50.5661 28.0747 50.4781 28.1973 50.3928 28.32L49.0088 30.064H52.3288V30.592H48.2808V30.152L50.8328 26.896H51.5368V32H50.9128Z"
    fill="#A6A0BB" />
  <path
    d="M15.0351 1.18993C13.3875 0.396644 11.4195 0 9.1312 0H1.64046C1.28674 0 1 0.286742 1 0.640457V19.3595C1 19.7133 1.28674 20 1.64046 20H9.05492C13.6773 20 17.0488 18.3371 18.8337 15.3471C19.7185 13.8673 20.1609 12.0824 20.1609 9.99237C20.1609 5.82761 18.3303 2.79176 15.0351 1.18993ZM12.4569 15.6979C11.4805 16.1404 10.2754 16.3692 8.84134 16.3692H6.43069C6.07698 16.3692 5.79024 16.0824 5.79024 15.7287V4.25602C5.79024 3.9023 6.07698 3.61556 6.43069 3.61556H8.8566C11.7094 3.61556 13.6621 4.48513 14.6537 6.36156C15.1419 7.29214 15.386 8.51259 15.386 9.99237C15.386 12.9672 14.3944 14.8131 12.4569 15.6979Z"
    fill="white" />
  <path
    d="M27.4891 15.5962H16.5632V11.8193L25.6001 0.0997474C25.6486 0.0368452 25.7235 0 25.803 0H32.7507V11.9674H33.7274C33.8689 11.9674 33.9836 12.0821 33.9836 12.2236V15.34C33.9836 15.4815 33.8689 15.5962 33.7274 15.5962H32.7507V19.9951H27.7452C27.6038 19.9951 27.4891 19.8804 27.4891 19.7389V15.5962ZM27.4891 11.9674V5.39126L28.5897 3.39176L28.3749 3.21402L21.8516 11.9674H27.4891Z"
    fill="url(#paint0_linear_26_3946)" />
  <path
    d="M32.9686 0.337668C32.7966 0.197942 32.7626 0.395887 32.7507 0.512326L32.5746 0.128052H33.0402C33.088 0.256143 33.1405 0.477394 32.9686 0.337668Z"
    fill="white" />
  <path
    d="M42.6066 13.1808H42.7897L47.2939 19.8038C47.3774 19.9265 47.5162 20 47.6646 20H52.1112C52.4755 20 52.6877 19.5886 52.4765 19.2918L45.8713 10.0076L52.3244 0.70383C52.5306 0.406523 52.3178 0 51.956 0H47.6202C47.471 0 47.3316 0.0741862 47.2483 0.197912L42.7897 6.81922H42.6066L38.1632 0.198484C38.0799 0.0744277 37.9403 0 37.7909 0H32.5685L39.5555 10.0076L32.4464 20H37.702C37.85 20 37.9884 19.927 38.072 19.8049L42.6066 13.1808Z"
    fill="white" />
  <path
    d="M42.6066 13.1808H42.7897L47.2939 19.8038C47.3774 19.9265 47.5162 20 47.6646 20H52.1112C52.4755 20 52.6877 19.5886 52.4765 19.2918L45.8713 10.0076L52.3244 0.70383C52.5306 0.406523 52.3178 0 51.956 0H47.6202C47.471 0 47.3316 0.0741862 47.2483 0.197912L42.7897 6.81922H42.6066L38.1632 0.198484C38.0799 0.0744277 37.9403 0 37.7909 0H32.5685L39.5555 10.0076L32.4464 20H37.702C37.85 20 37.9884 19.927 38.072 19.8049L42.6066 13.1808Z"
    fill="url(#paint1_linear_26_3946)" />
  <path
    d="M42.6066 13.1808H42.7897L47.2939 19.8038C47.3774 19.9265 47.5162 20 47.6646 20H52.1112C52.4755 20 52.6877 19.5886 52.4765 19.2918L45.8713 10.0076L52.3244 0.70383C52.5306 0.406523 52.3178 0 51.956 0H47.6202C47.471 0 47.3316 0.0741862 47.2483 0.197912L42.7897 6.81922H42.6066L38.1632 0.198484C38.0799 0.0744277 37.9403 0 37.7909 0H32.5685L39.5555 10.0076L32.4464 20H37.702C37.85 20 37.9884 19.927 38.072 19.8049L42.6066 13.1808Z"
    fill="url(#paint2_linear_26_3946)" />
  <defs>
    <linearGradient id="paint0_linear_26_3946" x1="39.2277" y1="-2.57409" x2="11.9172" y2="13.2517"
      gradientUnits="userSpaceOnUse">
      <stop offset="0.520833" stop-color="white" />
      <stop offset="1" stop-color="white" stop-opacity="0" />
    </linearGradient>
    <linearGradient id="paint1_linear_26_3946" x1="32.4464" y1="10" x2="52.9804" y2="10" gradientUnits="userSpaceOnUse">
      <stop stop-color="#4BC0C8" />
      <stop offset="0.5" stop-color="#C779D0" />
      <stop offset="1" stop-color="#FEAC5E" />
    </linearGradient>
    <linearGradient id="paint2_linear_26_3946" x1="32.4464" y1="10" x2="52.9804" y2="10" gradientUnits="userSpaceOnUse">
      <stop stop-color="#2CD1DC" />
      <stop offset="0.5" stop-color="#D05ADE" />
      <stop offset="1" stop-color="#F8C135" />
    </linearGradient>
  </defs>
</svg>