<svg width="21" height="20" viewBox="0 0 21 20" fill="none" xmlns="http://www.w3.org/2000/svg">
  <path d="M19.7732 1L12.0579 6.72353L13.4926 3.35046L19.7732 1Z" fill="#E17726" stroke="#E17726" stroke-width="0.49375"
    stroke-linecap="round" stroke-linejoin="round" />
  <path d="M1.97681 1L9.62345 6.77695L8.25743 3.35046L1.97681 1Z" fill="#E27625" stroke="#E27625" stroke-width="0.49375"
    stroke-linecap="round" stroke-linejoin="round" />
  <path d="M16.9953 14.2709L14.9425 17.415L19.3382 18.6284L20.5974 14.3396L16.9953 14.2709Z" fill="#E27625"
    stroke="#E27625" stroke-width="0.49375" stroke-linecap="round" stroke-linejoin="round" />
  <path d="M1.16028 14.3396L2.41182 18.6284L6.79986 17.415L4.75466 14.2709L1.16028 14.3396Z" fill="#E27625"
    stroke="#E27625" stroke-width="0.49375" stroke-linecap="round" stroke-linejoin="round" />
  <path d="M6.56318 8.95949L5.34216 10.8063L9.69205 11.0047L9.54705 6.3114L6.56318 8.95949Z" fill="#E27625"
    stroke="#E27625" stroke-width="0.49375" stroke-linecap="round" stroke-linejoin="round" />
  <path d="M15.1867 8.95956L12.1571 6.25806L12.0579 11.0048L16.4077 10.8064L15.1867 8.95956Z" fill="#E27625"
    stroke="#E27625" stroke-width="0.49375" stroke-linecap="round" stroke-linejoin="round" />
  <path d="M6.7998 17.4152L9.43263 16.1407L7.16611 14.3702L6.7998 17.4152Z" fill="#E27625" stroke="#E27625"
    stroke-width="0.49375" stroke-linecap="round" stroke-linejoin="round" />
  <path d="M12.3174 16.1407L14.9426 17.4152L14.5839 14.3702L12.3174 16.1407Z" fill="#E27625" stroke="#E27625"
    stroke-width="0.49375" stroke-linecap="round" stroke-linejoin="round" />
  <path d="M14.9426 17.4151L12.3174 16.1406L12.5311 17.8501L12.5082 18.575L14.9426 17.4151Z" fill="#D5BFB2"
    stroke="#D5BFB2" stroke-width="0.49375" stroke-linecap="round" stroke-linejoin="round" />
  <path d="M6.7998 17.4151L9.24184 18.575L9.22658 17.8501L9.43263 16.1406L6.7998 17.4151Z" fill="#D5BFB2"
    stroke="#D5BFB2" stroke-width="0.49375" stroke-linecap="round" stroke-linejoin="round" />
  <path d="M9.28768 13.2408L7.1051 12.5997L8.64664 11.89L9.28768 13.2408Z" fill="#233447" stroke="#233447"
    stroke-width="0.49375" stroke-linecap="round" stroke-linejoin="round" />
  <path d="M12.4624 13.2408L13.1034 11.89L14.6526 12.5997L12.4624 13.2408Z" fill="#233447" stroke="#233447"
    stroke-width="0.49375" stroke-linecap="round" stroke-linejoin="round" />
  <path d="M6.79985 17.415L7.18142 14.2709L4.75464 14.3396L6.79985 17.415Z" fill="#CC6228" stroke="#CC6228"
    stroke-width="0.49375" stroke-linecap="round" stroke-linejoin="round" />
  <path d="M14.5686 14.2709L14.9425 17.415L16.9954 14.3396L14.5686 14.2709Z" fill="#CC6228" stroke="#CC6228"
    stroke-width="0.49375" stroke-linecap="round" stroke-linejoin="round" />
  <path d="M16.4077 10.8063L12.0579 11.0047L12.4623 13.2407L13.1034 11.8899L14.6525 12.5996L16.4077 10.8063Z"
    fill="#CC6228" stroke="#CC6228" stroke-width="0.49375" stroke-linecap="round" stroke-linejoin="round" />
  <path d="M7.10501 12.5996L8.64655 11.8899L9.28759 13.2407L9.69205 11.0047L5.34216 10.8063L7.10501 12.5996Z"
    fill="#CC6228" stroke="#CC6228" stroke-width="0.49375" stroke-linecap="round" stroke-linejoin="round" />
  <path d="M5.34216 10.8063L7.16606 14.3701L7.10501 12.5996L5.34216 10.8063Z" fill="#E27525" stroke="#E27525"
    stroke-width="0.49375" stroke-linecap="round" stroke-linejoin="round" />
  <path d="M14.6525 12.5996L14.5839 14.3701L16.4078 10.8063L14.6525 12.5996Z" fill="#E27525" stroke="#E27525"
    stroke-width="0.49375" stroke-linecap="round" stroke-linejoin="round" />
  <path d="M9.69206 11.0048L9.2876 13.2408L9.7989 15.8812L9.91337 12.4013L9.69206 11.0048Z" fill="#E27525"
    stroke="#E27525" stroke-width="0.49375" stroke-linecap="round" stroke-linejoin="round" />
  <path d="M12.0578 11.0048L11.8441 12.3937L11.951 15.8812L12.4623 13.2408L12.0578 11.0048Z" fill="#E27525"
    stroke="#E27525" stroke-width="0.49375" stroke-linecap="round" stroke-linejoin="round" />
  <path d="M12.4624 13.2408L11.951 15.8812L12.3174 16.1407L14.5839 14.3702L14.6526 12.5997L12.4624 13.2408Z"
    fill="#F5841F" stroke="#F5841F" stroke-width="0.49375" stroke-linecap="round" stroke-linejoin="round" />
  <path d="M7.1051 12.5997L7.16615 14.3702L9.43267 16.1407L9.79898 15.8812L9.28768 13.2408L7.1051 12.5997Z"
    fill="#F5841F" stroke="#F5841F" stroke-width="0.49375" stroke-linecap="round" stroke-linejoin="round" />
  <path
    d="M12.5081 18.575L12.531 17.85L12.3326 17.6821H9.41737L9.22658 17.85L9.24184 18.575L6.7998 17.415L7.65452 18.1171L9.38684 19.3153H12.3554L14.0954 18.1171L14.9425 17.415L12.5081 18.575Z"
    fill="#C0AC9D" stroke="#C0AC9D" stroke-width="0.49375" stroke-linecap="round" stroke-linejoin="round" />
  <path
    d="M12.3174 16.1407L11.9511 15.8812H9.79904L9.43273 16.1407L9.22668 17.8501L9.41747 17.6822H12.3327L12.5311 17.8501L12.3174 16.1407Z"
    fill="#161616" stroke="#161616" stroke-width="0.49375" stroke-linecap="round" stroke-linejoin="round" />
  <path
    d="M20.1014 7.09747L20.7501 3.93808L19.7732 1L12.3174 6.53275L15.1868 8.95953L19.239 10.1424L20.1319 9.09689L19.7427 8.81453L20.3609 8.24981L19.8877 7.8835L20.5058 7.41036L20.1014 7.09747Z"
    fill="#763E1A" stroke="#763E1A" stroke-width="0.49375" stroke-linecap="round" stroke-linejoin="round" />
  <path
    d="M1 3.93808L1.6563 7.09747L1.23657 7.41036L1.86235 7.8835L1.3892 8.24981L2.00734 8.81453L1.61814 9.09689L2.51101 10.1424L6.56327 8.95953L9.43267 6.53275L1.97682 1L1 3.93808Z"
    fill="#763E1A" stroke="#763E1A" stroke-width="0.49375" stroke-linecap="round" stroke-linejoin="round" />
  <path d="M19.239 10.1423L15.1867 8.95947L16.4078 10.8063L14.5839 14.3701L16.9954 14.3396H20.5974L19.239 10.1423Z"
    fill="#F5841F" stroke="#F5841F" stroke-width="0.49375" stroke-linecap="round" stroke-linejoin="round" />
  <path d="M6.56329 8.95947L2.51103 10.1423L1.16028 14.3396H4.75466L7.16617 14.3701L5.34227 10.8063L6.56329 8.95947Z"
    fill="#F5841F" stroke="#F5841F" stroke-width="0.49375" stroke-linecap="round" stroke-linejoin="round" />
  <path
    d="M12.0579 11.0047L12.3173 6.53275L13.4926 3.35046H8.25745L9.43268 6.53275L9.69214 11.0047L9.79135 12.4089L9.79898 15.8812H11.951L11.9587 12.4089L12.0579 11.0047Z"
    fill="#F5841F" stroke="#F5841F" stroke-width="0.49375" stroke-linecap="round" stroke-linejoin="round" />
</svg>