<svg width="40" height="40" viewBox="0 0 40 40" fill="none" xmlns="http://www.w3.org/2000/svg">
  <rect x="1" y="39" width="38" height="38" rx="7" transform="rotate(-90 1 39)" fill="#19122C" stroke="#090416"
    stroke-width="2" />
  <path
    d="M24.3151 16.8732V26.6862L20.6032 22.9682C20.2846 22.646 19.7655 22.6436 19.4439 22.9627C19.1223 23.2819 19.1198 23.8017 19.4385 24.1239L24.5437 29.1721C24.6231 29.2464 24.7153 29.3055 24.8158 29.3466C25.0157 29.4229 25.2365 29.4229 25.4363 29.3466C25.5369 29.3055 25.6291 29.2464 25.7085 29.1721L30.8137 24.0585C30.963 23.9027 31.0485 23.6965 31.0532 23.4806C31.053 23.2638 30.9669 23.0559 30.8137 22.9027C30.6621 22.7469 30.454 22.659 30.2368 22.659C30.0195 22.659 29.8115 22.7469 29.6599 22.9027L25.9479 26.6535V16.8405C25.9479 16.3889 25.5824 16.0228 25.1315 16.0228C24.6806 16.0228 24.3151 16.3889 24.3151 16.8405V16.8732Z"
    fill="white" />
  <path
    d="M14.5835 11.5197C14.492 11.5739 14.4109 11.6441 14.344 11.7269L9.23876 16.8078C8.92041 17.1271 8.92041 17.6443 9.23876 17.9635C9.39038 18.1194 9.59843 18.2073 9.81569 18.2073C10.0329 18.2073 10.241 18.1194 10.3926 17.9635L14.1154 14.2455V24.0585C14.1154 24.5101 14.4809 24.8762 14.9318 24.8762C15.3827 24.8762 15.7482 24.5101 15.7482 24.0585V14.2455L19.4602 17.9635C19.6118 18.1194 19.8198 18.2073 20.0371 18.2073C20.2544 18.2073 20.4624 18.1194 20.614 17.9635C20.7672 17.8103 20.8533 17.6025 20.8535 17.3857C20.8488 17.1698 20.7633 16.9635 20.614 16.8078L15.5088 11.7269C15.4294 11.6526 15.3372 11.5935 15.2366 11.5524C15.0314 11.4569 14.7972 11.4452 14.5835 11.5197Z"
    fill="white" />
</svg>